<svg xmlns="http://www.w3.org/2000/svg" viewBox="0 0 512 512" id="frankenstein">
  <path d="M293.315 304.03a7.5 7.5 0 0 0-7.5-7.5h-59.63a7.5 7.5 0 0 0 0 15h59.63a7.5 7.5 0 0 0 7.5-7.5Zm218.07 197.354-4.725-45.38a75.367 75.367 0 0 0-59.288-66.038l-140.223-30.04V351.5h59.957v2.5a7.5 7.5 0 0 0 7.5 7.5h30a7.5 7.5 0 0 0 7.5-7.5v-50a7.5 7.5 0 0 0-7.5-7.5h-30a7.5 7.5 0 0 0-7.5 7.5v2.5h-18.563a87.777 87.777 0 0 0 16.66-30.62l29.387-11.914a18.759 18.759 0 0 0 11.761-17.457v-50.184a18.858 18.858 0 0 0-18.837-18.837h-12.193l7.196-87.315c.009-.102.006-.203.01-.305.004-.104.016-.206.016-.311V50.844A35.884 35.884 0 0 0 346.699 15H165.3a35.884 35.884 0 0 0-35.842 35.844v38.713c0 .105.011.207.015.311.005.102.002.203.01.305l7.196 87.315h-12.193a18.858 18.858 0 0 0-18.837 18.837v50.184a18.76 18.76 0 0 0 11.76 17.457l29.388 11.913a87.792 87.792 0 0 0 16.66 30.621h-18.564V304a7.5 7.5 0 0 0-7.5-7.5h-30a7.5 7.5 0 0 0-7.5 7.5v50a7.5 7.5 0 0 0 7.5 7.5h30a7.5 7.5 0 0 0 7.5-7.5v-2.5h59.958v8.43l-11.99 2.568-.242.048-127.992 27.42A75.365 75.365 0 0 0 5.34 456.004L.613 501.386A7.49 7.49 0 0 0 7.43 512h.39l.018.001.021-.001h186.94l.023.001.02-.001h122.315l.02.001.023-.001h186.94l.02.001.02-.001h.39a7.49 7.49 0 0 0 6.816-10.616ZM382.107 311.5h15v35h-15Zm-252.213 35h-15v-35h15Zm237.213-25v15h-57.798l20.218-13.136a84.6 84.6 0 0 0 2.736-1.864Zm1.598-63.729 5.38-65.283h13.43a3.842 3.842 0 0 1 3.837 3.837v50.184a3.823 3.823 0 0 1-2.395 3.556l-20.303 8.231c.015-.175.036-.35.05-.525Zm-245.66-7.706a3.823 3.823 0 0 1-2.395-3.556v-50.184a3.842 3.842 0 0 1 3.837-3.837h13.43l5.38 65.283c.014.176.035.35.05.525ZM144.458 89.25V50.844A20.867 20.867 0 0 1 165.3 30H346.7a20.868 20.868 0 0 1 20.844 20.844v38.405l-7.408 89.873a23.72 23.72 0 0 1-17.063-24.628l4.056-51.652a25.824 25.824 0 0 0-23.194-27.581 658.097 658.097 0 0 0-135.784 1.071 25.601 25.601 0 0 0-22.8 27.541l4.075 51.925a23.725 23.725 0 0 1-17.444 24.739Zm.435 247.251v-15h34.845c.9.636 1.81 1.262 2.736 1.864l20.218 13.136Zm45.753-25.714a72.191 72.191 0 0 1-32.401-54.247l-5.022-60.932a38.652 38.652 0 0 0 31.156-40.983l-4.077-51.925a10.664 10.664 0 0 1 9.513-11.459 643.096 643.096 0 0 1 132.69-1.048 10.755 10.755 0 0 1 9.67 11.476l-4.056 51.652a38.666 38.666 0 0 0 30.77 40.912l-5.134 62.307a72.184 72.184 0 0 1-32.4 54.247l-24.614 15.991a7.494 7.494 0 0 0-2.183 1.419l-19.22 12.488a17.996 17.996 0 0 1-9.785 2.913c-5.681.011-13.424.012-19.108-.001a17.98 17.98 0 0 1-9.782-2.912Zm101.503 36.862v16.359a36.149 36.149 0 1 1-72.298 0v-16.358l8.639 5.613a32.95 32.95 0 0 0 17.924 5.334 4620.857 4620.857 0 0 0 19.172.001 32.956 32.956 0 0 0 17.923-5.335ZM114.563 497H16.152l4.108-39.443a60.395 60.395 0 0 1 47.511-52.923l87.589-18.765-59.451 52.247a7.5 7.5 0 0 0 .304 11.52l32.653 25.775Zm17.993 0 12.626-19.058a7.499 7.499 0 0 0-1.605-10.029l-31.004-24.473 62.213-54.673a753.182 753.182 0 0 0 10.053 102.864c.307 1.79.63 3.58.955 5.369Zm179.823-7.908a610.004 610.004 0 0 1-1.415 7.908H201.039q-.73-3.943-1.417-7.91a744.63 744.63 0 0 1-10.075-110.545l5.99-1.283a10.7 10.7 0 0 0 .244-.048l10.275-2.202a51.14 51.14 0 0 0 99.888-.002l16.57 3.55c-.276 16.049-1.8 61.96-10.135 110.532ZM326.213 497c.324-1.797.644-3.596.949-5.371a775.222 775.222 0 0 0 10.122-102.8l62.143 54.611-31.004 24.473a7.499 7.499 0 0 0-1.605 10.03L379.444 497Zm71.224 0-14.303-21.589 32.653-25.774a7.5 7.5 0 0 0 .304-11.52l-59.45-52.247 87.585 18.763a60.397 60.397 0 0 1 47.514 52.925L495.847 497ZM287.745 195.035h4.861a8.503 8.503 0 1 0 14.517 0h2.163a7.5 7.5 0 0 0 0-15h-21.541a7.5 7.5 0 0 0 0 15Zm-65.757 4.412a8.448 8.448 0 0 0-1.245-4.412h3.512a7.5 7.5 0 0 0 0-15h-21.54a7.5 7.5 0 0 0 0 15h3.511a8.5 8.5 0 1 0 15.762 4.412Zm-9.92-75.092-6.72 6.72a7.5 7.5 0 1 0 10.605 10.608l6.721-6.722 13.445 13.444-6.722 6.722a7.5 7.5 0 1 0 10.608 10.605l6.72-6.72 6.722 6.721a7.5 7.5 0 0 0 10.607-10.607l-6.722-6.722 6.722-6.722a7.5 7.5 0 0 0-10.607-10.606l-6.721 6.722-13.444-13.444 6.722-6.721a7.5 7.5 0 0 0-10.606-10.608l-6.722 6.722-6.722-6.722a7.5 7.5 0 1 0-10.608 10.608Z"></path>
</svg>
